<?xml version="1.0" encoding="UTF-8"?>
<svg id="Calque_2" data-name="Calque 2" xmlns="http://www.w3.org/2000/svg" xmlns:xlink="http://www.w3.org/1999/xlink" viewBox="0 0 167.56 60.78">
  <defs>
    <style>
      .cls-1 {
        fill: none;
      }

      .cls-2 {
        fill: #010101;
      }

      .cls-3 {
        fill: url(#Dégradé_sans_nom_310-19);
      }

      .cls-4 {
        fill: url(#Dégradé_sans_nom_310-16);
      }

      .cls-5 {
        fill: url(#Dégradé_sans_nom_310-17);
      }

      .cls-6 {
        fill: url(#Dégradé_sans_nom_310-27);
      }

      .cls-7 {
        fill: url(#Dégradé_sans_nom_310-13);
      }

      .cls-8 {
        fill: url(#Dégradé_sans_nom_310-12);
      }

      .cls-9 {
        fill: url(#Dégradé_sans_nom_310-11);
      }

      .cls-10 {
        fill: url(#Dégradé_sans_nom_310-10);
      }

      .cls-11 {
        fill: url(#Dégradé_sans_nom_310-15);
      }

      .cls-12 {
        fill: url(#Dégradé_sans_nom_310-14);
      }

      .cls-13 {
        fill: url(#Dégradé_sans_nom_310-26);
      }

      .cls-14 {
        fill: url(#Dégradé_sans_nom_310-18);
      }

      .cls-15 {
        fill: url(#Dégradé_sans_nom_310-20);
      }

      .cls-16 {
        fill: url(#Dégradé_sans_nom_310-23);
      }

      .cls-17 {
        fill: url(#Dégradé_sans_nom_310-21);
      }

      .cls-18 {
        fill: url(#Dégradé_sans_nom_310-24);
      }

      .cls-19 {
        fill: url(#Dégradé_sans_nom_310-22);
      }

      .cls-20 {
        fill: url(#Dégradé_sans_nom_310-25);
      }

      .cls-21 {
        fill: url(#Dégradé_sans_nom_310);
      }

      .cls-22 {
        fill: url(#Dégradé_sans_nom_310-8);
      }

      .cls-23 {
        fill: url(#Dégradé_sans_nom_310-7);
      }

      .cls-24 {
        fill: url(#Dégradé_sans_nom_310-6);
      }

      .cls-25 {
        fill: url(#Dégradé_sans_nom_310-5);
      }

      .cls-26 {
        fill: url(#Dégradé_sans_nom_310-2);
      }

      .cls-27 {
        fill: url(#Dégradé_sans_nom_310-4);
      }

      .cls-28 {
        fill: url(#Dégradé_sans_nom_310-3);
      }

      .cls-29 {
        fill: url(#Dégradé_sans_nom_310-9);
      }
    </style>
    <linearGradient id="Dégradé_sans_nom_310" data-name="Dégradé sans nom 310" x1="-601.88" y1="662.23" x2="-562.73" y2="662.23" gradientTransform="translate(702.45 -643.62)" gradientUnits="userSpaceOnUse">
      <stop offset=".03" stop-color="#0e8fcf"/>
      <stop offset=".22" stop-color="#2073b8"/>
      <stop offset=".51" stop-color="#394d9a"/>
      <stop offset=".97" stop-color="#e5388b"/>
    </linearGradient>
    <linearGradient id="Dégradé_sans_nom_310-2" data-name="Dégradé sans nom 310" x1="-601.88" x2="-562.74" xlink:href="#Dégradé_sans_nom_310"/>
    <linearGradient id="Dégradé_sans_nom_310-3" data-name="Dégradé sans nom 310" x1="-601.88" y1="662.22" x2="-562.73" y2="662.22" xlink:href="#Dégradé_sans_nom_310"/>
    <linearGradient id="Dégradé_sans_nom_310-4" data-name="Dégradé sans nom 310" x1="-601.88" x2="-562.73" xlink:href="#Dégradé_sans_nom_310"/>
    <linearGradient id="Dégradé_sans_nom_310-5" data-name="Dégradé sans nom 310" y1="679.37" x2="-562.73" y2="679.37" xlink:href="#Dégradé_sans_nom_310"/>
    <linearGradient id="Dégradé_sans_nom_310-6" data-name="Dégradé sans nom 310" x1="-601.88" y1="679.37" x2="-562.73" y2="679.37" xlink:href="#Dégradé_sans_nom_310"/>
    <linearGradient id="Dégradé_sans_nom_310-7" data-name="Dégradé sans nom 310" x1="-601.88" y1="679.37" x2="-562.73" y2="679.37" xlink:href="#Dégradé_sans_nom_310"/>
    <linearGradient id="Dégradé_sans_nom_310-8" data-name="Dégradé sans nom 310" x1="-601.88" y1="679.37" x2="-562.73" y2="679.37" xlink:href="#Dégradé_sans_nom_310"/>
    <linearGradient id="Dégradé_sans_nom_310-9" data-name="Dégradé sans nom 310" y1="679.37" x2="-562.73" y2="679.37" xlink:href="#Dégradé_sans_nom_310"/>
    <linearGradient id="Dégradé_sans_nom_310-10" data-name="Dégradé sans nom 310" x1="-601.88" y1="679.37" x2="-562.73" y2="679.37" xlink:href="#Dégradé_sans_nom_310"/>
    <linearGradient id="Dégradé_sans_nom_310-11" data-name="Dégradé sans nom 310" x1="-594.7" y1="645.23" x2="-560.84" y2="645.23" xlink:href="#Dégradé_sans_nom_310"/>
    <linearGradient id="Dégradé_sans_nom_310-12" data-name="Dégradé sans nom 310" x1="-594.7" y1="648.4" x2="-560.84" y2="648.4" xlink:href="#Dégradé_sans_nom_310"/>
    <linearGradient id="Dégradé_sans_nom_310-13" data-name="Dégradé sans nom 310" x1="-594.7" y1="652.46" x2="-560.84" y2="652.46" xlink:href="#Dégradé_sans_nom_310"/>
    <linearGradient id="Dégradé_sans_nom_310-14" data-name="Dégradé sans nom 310" x1="-594.7" y1="656.42" x2="-560.84" y2="656.42" xlink:href="#Dégradé_sans_nom_310"/>
    <linearGradient id="Dégradé_sans_nom_310-15" data-name="Dégradé sans nom 310" x1="-594.7" y1="660.38" x2="-560.84" y2="660.38" xlink:href="#Dégradé_sans_nom_310"/>
    <linearGradient id="Dégradé_sans_nom_310-16" data-name="Dégradé sans nom 310" x1="-594.7" y1="648.4" x2="-560.84" y2="648.4" xlink:href="#Dégradé_sans_nom_310"/>
    <linearGradient id="Dégradé_sans_nom_310-17" data-name="Dégradé sans nom 310" x1="-594.7" y1="652.46" x2="-560.84" y2="652.46" xlink:href="#Dégradé_sans_nom_310"/>
    <linearGradient id="Dégradé_sans_nom_310-18" data-name="Dégradé sans nom 310" x1="-594.7" y1="660.38" x2="-560.84" y2="660.38" xlink:href="#Dégradé_sans_nom_310"/>
    <linearGradient id="Dégradé_sans_nom_310-19" data-name="Dégradé sans nom 310" x1="-594.7" y1="652.46" x2="-560.84" y2="652.46" xlink:href="#Dégradé_sans_nom_310"/>
    <linearGradient id="Dégradé_sans_nom_310-20" data-name="Dégradé sans nom 310" x1="-594.7" y1="652.46" x2="-560.84" y2="652.46" xlink:href="#Dégradé_sans_nom_310"/>
    <linearGradient id="Dégradé_sans_nom_310-21" data-name="Dégradé sans nom 310" x1="-594.7" y1="656.43" x2="-560.84" y2="656.43" xlink:href="#Dégradé_sans_nom_310"/>
    <linearGradient id="Dégradé_sans_nom_310-22" data-name="Dégradé sans nom 310" x1="-594.7" y1="660.38" x2="-560.84" y2="660.38" xlink:href="#Dégradé_sans_nom_310"/>
    <linearGradient id="Dégradé_sans_nom_310-23" data-name="Dégradé sans nom 310" x1="-594.7" y1="660.38" x2="-560.84" y2="660.38" xlink:href="#Dégradé_sans_nom_310"/>
    <linearGradient id="Dégradé_sans_nom_310-24" data-name="Dégradé sans nom 310" x1="-594.7" y1="664.39" x2="-560.84" y2="664.39" xlink:href="#Dégradé_sans_nom_310"/>
    <linearGradient id="Dégradé_sans_nom_310-25" data-name="Dégradé sans nom 310" x1="-594.7" y1="652.46" x2="-560.84" y2="652.46" xlink:href="#Dégradé_sans_nom_310"/>
    <linearGradient id="Dégradé_sans_nom_310-26" data-name="Dégradé sans nom 310" x1="-594.7" y1="650.83" x2="-560.84" y2="650.83" xlink:href="#Dégradé_sans_nom_310"/>
    <linearGradient id="Dégradé_sans_nom_310-27" data-name="Dégradé sans nom 310" x1="-594.7" y1="656.42" x2="-560.84" y2="656.42" xlink:href="#Dégradé_sans_nom_310"/>
  </defs>
  <g id="Calque_1-2" data-name="Calque 1">
    <path class="cls-21" d="M100.01,14.15h-4.25v11.54h-3.42v-11.54h.28v-2.64h7.39v2.64Z"/>
    <path class="cls-26" d="M110.24,19.67h-5.37v3.39h6.35v2.63h-9.76v-14.17h9.78v2.64h-6.37v2.99h5.37v2.53Z"/>
    <path class="cls-28" d="M124.07,20.89c-.05.99-.31,1.86-.8,2.61-.49.76-1.17,1.34-2.05,1.76-.88.42-1.88.62-3.01.62-1.86,0-3.33-.61-4.4-1.82-1.07-1.21-1.61-2.93-1.61-5.14v-.7c0-1.39.24-2.6.73-3.65.48-1.04,1.18-1.85,2.09-2.41.91-.57,1.96-.85,3.15-.85,1.72,0,3.1.45,4.15,1.36,1.04.91,1.64,2.15,1.78,3.74h-3.41c-.03-.86-.24-1.48-.65-1.86-.41-.38-1.03-.56-1.87-.56s-1.47.32-1.87.95c-.4.64-.6,1.65-.62,3.05v1c0,1.51.19,2.59.57,3.24.38.65,1.03.97,1.96.97.79,0,1.39-.18,1.8-.55.42-.37.64-.96.66-1.76h3.4Z"/>
    <path class="cls-27" d="M137.53,25.69h-3.4v-5.92h-5.03v5.92h-3.42v-14.17h3.42v5.63h5.03v-5.63h3.4v14.17Z"/>
    <path class="cls-1" d="M136.84,29.42c-1.34,0-2.4.49-3.2,1.48-.79.99-1.19,2.36-1.19,4.13v1.5c0,1.71.4,3.06,1.19,4.06.79,1,1.87,1.5,3.22,1.5s2.45-.49,3.22-1.48c.77-.99,1.16-2.36,1.16-4.12v-1.52c0-1.73-.39-3.09-1.18-4.07-.78-.98-1.86-1.47-3.22-1.47Z"/>
    <path class="cls-1" d="M93.75,41.23c.76.59,1.77.88,3.03.88,1.12,0,2.02-.25,2.7-.74s1.02-1.15,1.02-1.97-.28-1.43-.84-1.89c-.56-.46-1.59-.91-3.07-1.32-1.49-.42-2.58-.88-3.26-1.37-.35-.25-.63-.53-.86-.84v4.85h.16c0,1.02.38,1.82,1.14,2.4Z"/>
    <path class="cls-1" d="M150.54,29.42c-1.34,0-2.4.49-3.2,1.48-.79.99-1.19,2.36-1.19,4.13v1.5c0,1.71.4,3.06,1.19,4.06.79,1,1.87,1.5,3.22,1.5s2.45-.49,3.22-1.48c.77-.99,1.16-2.36,1.16-4.12v-1.52c0-1.73-.39-3.09-1.18-4.07-.78-.98-1.86-1.47-3.22-1.47Z"/>
    <path class="cls-25" d="M93.32,34.82c.69.49,1.77.95,3.26,1.37,1.49.42,2.51.86,3.07,1.32.56.46.84,1.1.84,1.89s-.34,1.47-1.02,1.97-1.58.74-2.7.74c-1.26,0-2.27-.29-3.03-.88-.76-.59-1.14-1.39-1.14-2.4h0v2.74c.25.42.76.76,1.38,1.03.85.36,1.78.54,2.79.54,1.48,0,2.68-.34,3.58-1.03.91-.69,1.36-1.6,1.36-2.73,0-.72-.17-1.34-.5-1.87-.34-.53-.84-.98-1.5-1.36-.67-.38-1.64-.75-2.94-1.1s-2.23-.76-2.82-1.22c-.59-.46-.88-1.06-.88-1.79,0-.79.33-1.43.98-1.93.65-.49,1.53-.74,2.63-.74s2.04.3,2.71.9c.67.6,1.01,1.39,1.01,2.38h1.23c0-.81-.21-1.55-.62-2.2s-1-1.17-1.76-1.54c-.75-.37-1.61-.55-2.57-.55-1.41,0-2.57.34-3.48,1.03-.3.23-.55.49-.64.77v3.83c.1.31.39.59.74.84Z"/>
    <path class="cls-24" d="M106.2,30.84c.77-.98,1.81-1.46,3.12-1.46,2.35,0,3.68,1.22,3.98,3.67h1.23c-.15-1.47-.66-2.62-1.56-3.45-.89-.83-2.11-1.25-3.65-1.25-1.09,0-2.06.27-2.9.81-.84.54-1.49,1.3-1.93,2.29s-.67,2.12-.67,3.4v1.87c0,1.26.23,2.38.68,3.36s1.08,1.74,1.9,2.27c.82.53,1.77.8,2.83.8,1.53,0,2.75-.4,3.67-1.21.92-.8,1.46-1.96,1.63-3.48h-1.23c-.15,1.22-.55,2.13-1.2,2.74-.65.61-1.61.91-2.88.91s-2.31-.49-3.06-1.48c-.76-.99-1.13-2.32-1.13-3.98v-1.76c0-1.72.39-3.07,1.16-4.05Z"/>
    <polygon class="cls-23" points="126.93 35.02 118.71 35.02 118.71 28.55 117.49 28.55 117.49 42.95 118.71 42.95 118.71 36.04 126.93 36.04 126.93 42.95 128.16 42.95 128.16 28.55 126.93 28.55 126.93 35.02"/>
    <path class="cls-22" d="M139.77,29.15c-.85-.53-1.82-.8-2.93-.8s-2.09.27-2.94.82c-.85.54-1.51,1.32-1.97,2.33-.46,1.01-.7,2.17-.7,3.49v1.48c0,2.04.52,3.67,1.55,4.87s2.39,1.8,4.07,1.8c1.11,0,2.1-.27,2.95-.81.85-.54,1.5-1.31,1.96-2.31.46-1,.69-2.17.69-3.49v-1.72c-.02-1.29-.26-2.42-.72-3.39-.46-.98-1.12-1.73-1.96-2.26ZM141.24,36.49c0,1.76-.39,3.13-1.16,4.12-.77.99-1.85,1.48-3.22,1.48s-2.43-.5-3.22-1.5c-.79-1-1.19-2.35-1.19-4.06v-1.5c0-1.77.4-3.14,1.19-4.13.79-.99,1.86-1.48,3.2-1.48s2.44.49,3.22,1.47c.78.98,1.18,2.34,1.18,4.07v1.52Z"/>
    <path class="cls-29" d="M153.48,29.15c-.85-.53-1.82-.8-2.93-.8s-2.09.27-2.94.82c-.85.54-1.51,1.32-1.97,2.33-.46,1.01-.7,2.17-.7,3.49v1.48c0,2.04.52,3.67,1.55,4.87s2.39,1.8,4.07,1.8c1.11,0,2.1-.27,2.95-.81.85-.54,1.5-1.31,1.96-2.31.46-1,.69-2.17.69-3.49v-1.72c-.02-1.29-.26-2.42-.72-3.39-.46-.98-1.12-1.73-1.96-2.26ZM154.94,36.49c0,1.76-.39,3.13-1.16,4.12-.77.99-1.85,1.48-3.22,1.48s-2.43-.5-3.22-1.5c-.79-1-1.19-2.35-1.19-4.06v-1.5c0-1.77.4-3.14,1.19-4.13.79-.99,1.86-1.48,3.2-1.48s2.44.49,3.22,1.47c.78.98,1.18,2.34,1.18,4.07v1.52Z"/>
    <polygon class="cls-10" points="160.45 28.55 159.23 28.55 159.23 42.95 167.56 42.95 167.56 41.92 160.45 41.92 160.45 28.55"/>
    <path class="cls-2" d="M85.01,13.43c-.42-.39-2.36-2.06-5.14-2.52v.19c1.73.73,4.32,2.67,4.46,7.15,0,.13.11.24.23.24s.23-.1.23-.23l.29-4.63c0-.08-.02-.15-.08-.2Z"/>
    <path class="cls-2" d="M85.66,27.33c-3.72,4.4-11.73,4.43-12.36-5.42-.51-7.63,3-10.02,4.65-10.73v-.17c-2.76.46-8.03,2.45-8.03,10.88,0,6.98,5.38,10.36,9.05,10.36,4.12,0,6.15-2.69,7.08-4.63.13-.27-.21-.5-.4-.28Z"/>
    <path class="cls-2" d="M44.15,31.6c-.98-.04-1.85-.41-1.85-2.08V13.19c0-.09-.04-.17-.11-.22l-2.4-1.64c-.19-.13-.42.05-.37.29.06.27.08.58.08.97v16.94c0,1.66-.85,2.03-1.83,2.08-.13,0-.23.12-.23.26v.12h6.94v-.12c0-.14-.1-.25-.23-.26Z"/>
    <path class="cls-2" d="M68.56,31.6c-.98-.04-1.85-.41-1.85-2.08V13.19c0-.09-.04-.17-.11-.22l-2.4-1.64c-.19-.13-.42.05-.37.29.06.27.08.58.08.97v16.94c0,1.66-.85,2.03-1.83,2.08-.13,0-.23.12-.23.26v.12h6.94v-.12c0-.14-.1-.25-.23-.26Z"/>
    <path class="cls-2" d="M54.84,30.65V11.51c0-.14-.11-.26-.24-.26h-2.39c-.14,0-.24.12-.24.26v18.41h.02s0,.12,0,.12c0,.09.04.17.11.22l2.46,1.66c.19.13.42-.06.37-.29-.06-.28-.09-.58-.09-.98Z"/>
    <path class="cls-2" d="M45.22,11.38v-.12s-.01.13-.01.13c-.02.03-.03.07-.03.1l-.31,5.12-.04.64c0,.15.1.28.24.28h.34v-.22s0,0,0-.02c.36-3.68,2.31-5.24,3.6-5.78v-.26h-3.58c-.09,0-.16.05-.2.12Z"/>
    <path class="cls-2" d="M60.88,11.42s0-.01,0-.02v-.21s-.02.14-.02.14c-.04-.09-.12-.15-.22-.15h-3.48v.22c1.3.52,3.32,2.01,3.51,5.63,0,.04.02.08.04.11v.13s.3,0,.3,0c.14,0,.25-.12.24-.27l-.32-4.91-.04-.69Z"/>
    <g>
      <path class="cls-2" d="M38.09,40.37v2.51h-.52v-6.16h2.1c.64,0,1.15.16,1.52.49.37.33.56.78.56,1.35s-.18,1.02-.53,1.34-.87.47-1.55.47h-1.57ZM38.09,39.93h1.58c.5,0,.89-.12,1.15-.36.27-.24.4-.57.4-1s-.13-.77-.4-1.02c-.26-.25-.64-.38-1.12-.39h-1.61v2.77Z"/>
      <path class="cls-2" d="M52.09,41.15h-2.8l-.63,1.73h-.55l2.33-6.16h.5l2.33,6.16h-.54l-.64-1.73ZM49.45,40.71h2.47l-1.23-3.35-1.24,3.35Z"/>
      <path class="cls-2" d="M62.92,40.31h-1.79v2.57h-.52v-6.16h2c.66,0,1.17.16,1.54.48s.55.76.55,1.33c0,.39-.12.74-.35,1.04s-.54.51-.93.63l1.54,2.62v.05h-.55l-1.49-2.57ZM61.13,39.87h1.59c.44,0,.79-.12,1.05-.37.27-.25.4-.57.4-.97,0-.43-.14-.77-.41-1.01-.28-.24-.66-.36-1.16-.36h-1.47v2.71Z"/>
      <path class="cls-2" d="M73.19,42.88h-.52v-6.16h.52v6.16Z"/>
      <path class="cls-2" d="M84.79,41.36c0-.34-.12-.61-.36-.81-.24-.2-.68-.39-1.32-.57-.64-.18-1.1-.37-1.4-.59-.42-.3-.63-.69-.63-1.18s.19-.85.58-1.15c.39-.29.88-.44,1.49-.44.41,0,.77.08,1.1.24.32.16.57.38.75.66.18.28.27.6.27.94h-.52c0-.42-.14-.76-.43-1.02-.29-.26-.67-.38-1.16-.38s-.85.1-1.12.32c-.28.21-.42.48-.42.82,0,.31.13.57.38.77s.65.37,1.21.52.97.31,1.26.47.5.36.64.58.22.49.22.8c0,.48-.19.87-.58,1.17-.39.29-.9.44-1.53.44-.43,0-.83-.08-1.2-.23s-.64-.37-.82-.65c-.19-.28-.28-.6-.28-.96h.52c0,.43.16.78.49,1.03.32.25.76.38,1.29.38.48,0,.86-.11,1.15-.32.29-.21.44-.49.44-.84Z"/>
    </g>
    <path class="cls-2" d="M.08,7.11v18.36h0c0,3.46.9,6.66,2.26,9.54L30.25,7.11H.08Z"/>
    <path class="cls-2" d="M30.24,10.91L3.67,37.49c4.45,7.46,11.47,12.12,11.47,12.12h.05s15.06-10,15.06-24.14h0v-14.56Z"/>
    <g>
      <path class="cls-2" d="M2.81,58.57H.84v1.48h2.31v.67H0v-4.81h3.12v.67H.84v1.33h1.97v.66Z"/>
      <path class="cls-2" d="M9.89,60.72h-.84l-2.14-3.41v3.41h-.84v-4.81h.84l2.15,3.42v-3.42h.83v4.81Z"/>
      <path class="cls-2" d="M15.63,59.48c0-.21-.07-.37-.22-.49s-.42-.23-.8-.35c-.39-.12-.7-.25-.92-.39-.44-.28-.66-.63-.66-1.08,0-.39.16-.71.47-.96.32-.25.73-.38,1.23-.38.33,0,.63.06.89.18.26.12.47.3.62.53s.22.48.22.76h-.83c0-.25-.08-.45-.24-.59-.16-.14-.38-.21-.68-.21-.27,0-.48.06-.64.18s-.23.28-.23.49c0,.18.08.32.24.44.16.12.43.23.81.34s.67.24.9.38c.23.14.39.3.5.49s.16.4.16.65c0,.4-.15.72-.46.96-.31.24-.72.35-1.25.35-.35,0-.67-.06-.96-.19-.29-.13-.52-.31-.68-.53-.16-.23-.24-.49-.24-.79h.83c0,.27.09.48.27.63.18.15.44.22.78.22.29,0,.51-.06.66-.18s.22-.27.22-.47Z"/>
      <path class="cls-2" d="M22.26,58.57h-1.97v1.48h2.31v.67h-3.14v-4.81h3.12v.67h-2.28v1.33h1.97v.66Z"/>
      <path class="cls-2" d="M26.41,60.72h-.83v-4.81h.83v4.81Z"/>
      <path class="cls-2" d="M33.37,60.09c-.17.23-.41.4-.72.51-.31.12-.66.18-1.05.18s-.76-.09-1.07-.27-.55-.44-.72-.78-.26-.74-.26-1.19v-.38c0-.73.17-1.29.52-1.7.35-.41.83-.61,1.46-.61.53,0,.96.13,1.27.4s.5.65.57,1.14h-.82c-.09-.58-.43-.87-1.01-.87-.37,0-.66.13-.85.4-.19.27-.3.66-.3,1.19v.37c0,.52.11.92.33,1.21.22.29.52.43.91.43.43,0,.73-.1.91-.29v-.94h-.99v-.63h1.82v1.84Z"/>
      <path class="cls-2" d="M40.35,60.72h-.84l-2.14-3.41v3.41h-.84v-4.81h.84l2.15,3.42v-3.42h.83v4.81Z"/>
      <path class="cls-2" d="M46.4,58.57h-1.97v1.48h2.31v.67h-3.14v-4.81h3.12v.67h-2.28v1.33h1.97v.66Z"/>
      <path class="cls-2" d="M50.74,55.91l1.39,3.68,1.38-3.68h1.08v4.81h-.83v-1.58l.08-2.12-1.42,3.7h-.6l-1.42-3.7.08,2.12v1.58h-.83v-4.81h1.08Z"/>
      <path class="cls-2" d="M60.64,58.57h-1.97v1.48h2.31v.67h-3.14v-4.81h3.12v.67h-2.28v1.33h1.97v.66Z"/>
      <path class="cls-2" d="M67.71,60.72h-.84l-2.14-3.41v3.41h-.83v-4.81h.83l2.15,3.42v-3.42h.83v4.81Z"/>
      <path class="cls-2" d="M74.33,56.59h-1.5v4.13h-.83v-4.13h-1.49v-.67h3.81v.67Z"/>
      <path class="cls-2" d="M83.46,59.48c0-.21-.07-.37-.22-.49s-.42-.23-.8-.35-.7-.25-.92-.39c-.44-.28-.66-.63-.66-1.08,0-.39.16-.71.47-.96s.73-.38,1.23-.38c.33,0,.63.06.89.18s.47.3.62.53.22.48.22.76h-.83c0-.25-.08-.45-.24-.59s-.38-.21-.68-.21c-.27,0-.48.06-.64.18s-.23.28-.23.49c0,.18.08.32.24.44.16.12.43.23.81.34s.67.24.9.38c.23.14.39.3.5.49.11.18.16.4.16.65,0,.4-.15.72-.46.96s-.72.35-1.25.35c-.35,0-.67-.06-.96-.19-.29-.13-.52-.31-.68-.53-.16-.23-.24-.49-.24-.79h.83c0,.27.09.48.27.63.18.15.44.22.78.22.29,0,.51-.06.66-.18s.22-.27.22-.47Z"/>
      <path class="cls-2" d="M90.79,55.91v3.21c0,.51-.16.91-.49,1.21s-.76.45-1.31.45-.99-.15-1.31-.44c-.32-.29-.49-.7-.49-1.22v-3.21h.83v3.22c0,.32.08.57.24.74.16.17.4.25.72.25.64,0,.96-.34.96-1.02v-3.19h.83Z"/>
      <path class="cls-2" d="M94.77,58.94v1.78h-.83v-4.81h1.84c.54,0,.96.14,1.28.42.32.28.47.65.47,1.11s-.15.84-.46,1.1-.74.39-1.3.39h-.99ZM94.77,58.26h1c.3,0,.52-.07.68-.21s.23-.34.23-.61-.08-.47-.24-.62c-.16-.16-.38-.24-.65-.24h-1.03v1.68Z"/>
      <path class="cls-2" d="M103.31,58.57h-1.97v1.48h2.31v.67h-3.14v-4.81h3.12v.67h-2.28v1.33h1.97v.66ZM102.32,54.6h.91l-.91,1h-.64s.64-1,.64-1Z"/>
      <path class="cls-2" d="M108.34,58.87h-.93v1.85h-.83v-4.81h1.69c.55,0,.98.12,1.28.37.3.25.45.61.45,1.08,0,.32-.08.59-.23.81-.16.22-.37.38-.65.5l1.08,2v.04h-.89l-.96-1.85ZM107.41,58.2h.86c.28,0,.5-.07.66-.21.16-.14.24-.34.24-.58s-.07-.46-.22-.6c-.15-.14-.36-.21-.66-.22h-.88v1.61Z"/>
      <path class="cls-2" d="M113.93,60.72h-.83v-4.81h.83v4.81Z"/>
      <path class="cls-2" d="M120.01,58.57h-1.97v1.48h2.31v.67h-3.14v-4.81h3.12v.67h-2.28v1.33h1.97v.66Z"/>
      <path class="cls-2" d="M126.79,55.91v3.21c0,.51-.16.91-.49,1.21s-.76.45-1.31.45-.99-.15-1.31-.44c-.32-.29-.49-.7-.49-1.22v-3.21h.83v3.22c0,.32.08.57.24.74.16.17.4.25.72.25.64,0,.96-.34.96-1.02v-3.19h.83Z"/>
      <path class="cls-2" d="M131.7,58.87h-.93v1.85h-.83v-4.81h1.69c.55,0,.98.12,1.28.37.3.25.45.61.45,1.08,0,.32-.08.59-.23.81-.16.22-.37.38-.65.5l1.08,2v.04h-.89l-.96-1.85ZM130.77,58.2h.86c.28,0,.5-.07.66-.21.16-.14.24-.34.24-.58s-.07-.46-.22-.6c-.15-.14-.36-.21-.66-.22h-.88v1.61Z"/>
      <path class="cls-2" d="M141.17,58.94v1.78h-.83v-4.81h1.84c.54,0,.96.14,1.28.42.32.28.47.65.47,1.11s-.15.84-.46,1.1-.74.39-1.3.39h-.99ZM141.17,58.26h1c.3,0,.52-.07.68-.21s.23-.34.23-.61-.08-.47-.24-.62c-.16-.16-.38-.24-.65-.24h-1.03v1.68Z"/>
      <path class="cls-2" d="M148.67,58.87h-.93v1.85h-.83v-4.81h1.69c.55,0,.98.12,1.28.37.3.25.45.61.45,1.08,0,.32-.08.59-.23.81-.16.22-.37.38-.65.5l1.08,2v.04h-.89l-.96-1.85ZM147.74,58.2h.86c.28,0,.5-.07.66-.21.16-.14.24-.34.24-.58s-.07-.46-.22-.6c-.15-.14-.36-.21-.66-.22h-.88v1.61Z"/>
      <path class="cls-2" d="M154.26,60.72h-.83v-4.81h.83v4.81Z"/>
      <path class="cls-2" d="M159.23,59.67l1.22-3.76h.92l-1.73,4.81h-.81l-1.72-4.81h.91l1.21,3.76Z"/>
      <path class="cls-2" d="M166.97,58.57h-1.97v1.48h2.31v.67h-3.14v-4.81h3.12v.67h-2.28v1.33h1.97v.66ZM165.98,54.6h.91l-.91,1h-.64s.64-1,.64-1Z"/>
    </g>
    <rect class="cls-2" x="92.33" y="7.03" width=".58" height="42.28"/>
    <rect class="cls-9" x="155.73" width="3.21" height="3.21"/>
    <rect class="cls-8" x="142.97" y="3.17" width="3.21" height="3.21"/>
    <rect class="cls-7" x="142.97" y="7.23" width="3.21" height="3.21"/>
    <rect class="cls-12" x="143.02" y="11.19" width="3.21" height="3.21"/>
    <rect class="cls-11" x="143.02" y="15.15" width="3.21" height="3.21"/>
    <rect class="cls-4" x="147.24" y="3.17" width="3.21" height="3.21"/>
    <rect class="cls-5" x="147.24" y="7.23" width="3.21" height="3.21"/>
    <rect class="cls-14" x="147.3" y="15.15" width="3.21" height="3.21"/>
    <rect class="cls-3" x="151.47" y="7.23" width="3.21" height="3.21"/>
    <rect class="cls-15" x="155.73" y="7.23" width="3.21" height="3.21"/>
    <rect class="cls-17" x="155.73" y="11.2" width="3.21" height="3.21"/>
    <rect class="cls-19" x="151.52" y="15.15" width="3.21" height="3.21"/>
    <rect class="cls-16" x="155.88" y="15.15" width="3.21" height="3.21"/>
    <rect class="cls-18" x="151.52" y="19.16" width="3.21" height="3.21"/>
    <rect class="cls-20" x="138.75" y="7.23" width="3.21" height="3.21"/>
    <rect class="cls-13" x="132.07" y="5.6" width="3.21" height="3.21"/>
    <rect class="cls-6" x="138.8" y="11.19" width="3.21" height="3.21"/>
  </g>
</svg>